<?xml version="1.0" encoding="utf-8"?>
<!-- Generator: Adobe Illustrator 14.0.0, SVG Export Plug-In . SVG Version: 6.00 Build 43363)  -->
<!DOCTYPE svg PUBLIC "-//W3C//DTD SVG 1.1//EN" "http://www.w3.org/Graphics/SVG/1.1/DTD/svg11.dtd">
<svg version="1.1" id="Слой_1" xmlns="http://www.w3.org/2000/svg" xmlns:xlink="http://www.w3.org/1999/xlink" x="0px" y="0px"
	 width="32px" height="32px" viewBox="384 384 32 32" enable-background="new 384 384 32 32" xml:space="preserve">
<path fill="none" stroke="#666666" stroke-width="2" stroke-linecap="round" stroke-linejoin="round" d="M385,395h30 M391.667,385
	v3.333 M408.333,385v3.333 M390,401.667h3.333 M390,408.333h3.333 M398.333,401.667h3.333 M398.333,408.333h3.333 M406.667,401.667
	H410 M406.667,408.333H410 M390.333,415h19.333c1.866,0,2.8,0,3.513-0.363c0.628-0.319,1.138-0.829,1.457-1.457
	c0.363-0.713,0.363-1.646,0.363-3.513v-16c0-1.867,0-2.8-0.363-3.513c-0.319-0.627-0.829-1.137-1.457-1.457
	c-0.713-0.363-1.646-0.363-3.513-0.363h-19.333c-1.867,0-2.8,0-3.514,0.363c-0.627,0.319-1.137,0.83-1.457,1.457
	C385,390.866,385,391.8,385,393.667v16c0,1.866,0,2.8,0.363,3.513c0.32,0.628,0.83,1.138,1.457,1.457
	C387.533,415,388.466,415,390.333,415z"/>
</svg>
