<?xml version="1.0" encoding="utf-8"?>
<!-- Generator: Adobe Illustrator 14.0.0, SVG Export Plug-In . SVG Version: 6.00 Build 43363)  -->
<!DOCTYPE svg PUBLIC "-//W3C//DTD SVG 1.1//EN" "http://www.w3.org/Graphics/SVG/1.1/DTD/svg11.dtd">
<svg version="1.1" id="Слой_1" xmlns="http://www.w3.org/2000/svg" xmlns:xlink="http://www.w3.org/1999/xlink" x="0px" y="0px"
	 width="23.5px" height="19.477px" viewBox="388.25 384.559 23.5 19.477" enable-background="new 388.25 384.559 23.5 19.477"
	 xml:space="preserve">
<g id="Navigation__x2F__House_x5F_03">
	<path id="Vector" fill="none" stroke="#888888" stroke-width="1.5" stroke-linecap="round" stroke-linejoin="round" d="
		M389,403.285h2.199 M391.199,403.285h6.601 M391.199,403.285v-9.402c0-0.588,0-0.882,0.072-1.156
		c0.063-0.242,0.167-0.471,0.309-0.679c0.159-0.234,0.379-0.428,0.822-0.815l5.282-4.621c0.82-0.718,1.23-1.077,1.692-1.213
		c0.407-0.12,0.841-0.12,1.249,0c0.462,0.136,0.873,0.496,1.693,1.214l5.28,4.62c0.443,0.387,0.663,0.581,0.821,0.815
		c0.142,0.208,0.246,0.437,0.31,0.679c0.07,0.274,0.07,0.568,0.07,1.156v9.402 M397.8,403.285h4.399 M397.8,403.285v-4.4
		c0-1.215,0.985-2.2,2.2-2.2c1.215,0,2.199,0.985,2.199,2.2v4.4 M402.199,403.285h6.6 M408.799,403.285H411"/>
</g>
</svg>
