<!-- icon666.com - MILLIONS vector ICONS FREE --><svg viewBox="0 0 64 64" xmlns="http://www.w3.org/2000/svg"><g id="Bill-6" data-name="Bill"><path d="m57 3h-50a2.006 2.006 0 0 0 -2 2v56l4.51-6 4.5 6 4.51-6 4.5 6 4.49-6 4.5 6 4.5-6 4.5 6 4.5-6 4.5 6 4.5-6 4.49 6v-56a2.006 2.006 0 0 0 -2-2z" fill="#e6e7e8" style="fill: rgb(245, 216, 227);"></path><path d="m53 3v10l-3-4-3 4v-10z" fill="#ff5023"></path><path d="m59 5v56l-4.49-6-4.5 6-4.5-6-4.5 6-4.5-6-4.5 6-4.5-6-4.49 6-4.5-6-4.51 6-2.38-3.17-2.12-2.83-4.51 6v-56a2.006 2.006 0 0 1 2-2h40v10l3-4 3 4v-10h4a2.006 2.006 0 0 1 2 2z" fill="#e6e7e8" style="fill: rgb(245, 216, 227);"></path><path d="m59 7.14v53.86l-4.49-6-4.5 6-4.5-6-4.5 6-4.5-6-4.5 6-4.5-6-4.49 6-4.5-6-4.51 6-2.38-3.17a110.7 110.7 0 0 0 47.37-50.69z" fill="#d8d7da"></path><path d="m57 2h-50a3 3 0 0 0 -3 3v56a1 1 0 0 0 .684.949 1.014 1.014 0 0 0 .316.051 1 1 0 0 0 .8-.4l3.706-4.936 3.707 4.936a1.035 1.035 0 0 0 1.6 0l3.7-4.933 3.7 4.933a1.037 1.037 0 0 0 1.6 0l3.7-4.933 3.7 4.933a1.035 1.035 0 0 0 1.6 0l3.7-4.933 3.7 4.933a1.036 1.036 0 0 0 1.6 0l3.7-4.933 3.7 4.933a1 1 0 0 0 1.6 0l3.7-4.933 3.687 4.933a1 1 0 0 0 1.8-.6v-56a3 3 0 0 0 -3-3zm-9 2h4v6l-1.2-1.6a1.036 1.036 0 0 0 -1.6 0l-1.2 1.6zm10 54-2.694-3.6a1 1 0 0 0 -1.6 0l-3.7 4.933-3.7-4.933a1 1 0 0 0 -1.6 0l-3.7 4.933-3.7-4.933a1.035 1.035 0 0 0 -1.6 0l-3.7 4.933-3.7-4.933a1.036 1.036 0 0 0 -1.6 0l-3.7 4.933-3.7-4.933a1 1 0 0 0 -1.6 0l-3.7 4.934-3.7-4.934a1 1 0 0 0 -1.6 0l-2.706 3.6v-53a1 1 0 0 1 1-1h39v9a1 1 0 0 0 1.8.6l2.2-2.933 2.2 2.933a1 1 0 0 0 .8.4 1.019 1.019 0 0 0 .316-.051 1 1 0 0 0 .684-.949v-9h3a1 1 0 0 1 1 1z" fill="#000000"></path><path d="m22 16h16v2h-16z" fill="#000000"></path><path d="m22 12h4v2h-4z" fill="#000000"></path><path d="m28 12h10v2h-10z" fill="#000000"></path><path d="m13 20h2v-2a3 3 0 0 0 0-6h-2a1 1 0 0 1 0-2h2a1 1 0 0 1 1 1h2a3 3 0 0 0 -3-3v-2h-2v2a3 3 0 0 0 0 6h2a1 1 0 0 1 0 2h-2a1 1 0 0 1 -1-1h-2a3 3 0 0 0 3 3z" fill="#000000"></path><path d="m11 26h37v2h-37z" fill="#000000"></path><path d="m50 26h4v2h-4z" fill="#000000"></path><path d="m11 30h37v2h-37z" fill="#000000"></path><path d="m50 30h4v2h-4z" fill="#000000"></path><path d="m11 34h37v2h-37z" fill="#000000"></path><path d="m50 34h4v2h-4z" fill="#000000"></path><path d="m11 38h37v2h-37z" fill="#000000"></path><path d="m50 38h4v2h-4z" fill="#000000"></path><path d="m11 42h37v2h-37z" fill="#000000"></path><path d="m50 42h4v2h-4z" fill="#000000"></path><path d="m11 46h37v2h-37z" fill="#000000"></path><path d="m50 46h4v2h-4z" fill="#000000"></path></g></svg>