<!-- icon666.com - MILLIONS vector ICONS FREE --><svg version="1.1" id="Layer_1" xmlns="http://www.w3.org/2000/svg" xmlns:xlink="http://www.w3.org/1999/xlink" x="0px" y="0px" viewBox="0 0 488 488" style="enable-background:new 0 0 488 488;" xml:space="preserve"><path style="fill:#7EAA84;" d="M476.8,127.6H11.2c-6.4,0-11.2,4.8-11.2,11.2v216c0,6.4,4.8,11.2,11.2,11.2H476 c6.4,0,11.2-4.8,11.2-11.2v-216C488,132.4,483.2,127.6,476.8,127.6z"></path><path style="fill:#B1DDB7;" d="M476.8,122H11.2C4.8,122,0,126.8,0,133.2v216c0,6.4,4.8,11.2,11.2,11.2H476c6.4,0,11.2-4.8,11.2-11.2 v-216C488,126.8,483.2,122,476.8,122z"></path><path style="fill:#95C19D;" d="M476.8,361.2c6.4,0,11.2-4.8,11.2-11.2V134c0-6.4-4.8-11.2-11.2-11.2H11.2C4.8,122.8,0,127.6,0,134"></path><path style="fill:#52A85A;" d="M464,186.8c-21.6,0-39.2-17.6-39.2-39.2c0-1.6,0-3.2,0.8-4.8H63.2c0,1.6,0.8,3.2,0.8,4.8 c0,21.6-17.6,39.2-39.2,39.2c-1.6,0-3.2,0-4.8-0.8v110.4c1.6,0,3.2-0.8,4.8-0.8c21.6,0,39.2,17.6,39.2,39.2c0,1.6,0,3.2-0.8,4H424 c0-1.6-0.8-3.2-0.8-4c0-21.6,17.6-39.2,39.2-39.2c1.6,0,3.2,0,4.8,0.8V186C466.4,186.8,465.6,186.8,464,186.8z"></path><path style="fill:#4D9356;" d="M424,146.8c0-1.6,0-3.2,0.8-4.8H63.2c0,1.6,0.8,3.2,0.8,4.8c0,5.6-0.8,10.4-3.2,15.2L424,335.6l0,0 c0-21.6,17.6-39.2,39.2-39.2c1.6,0,3.2,0,4.8,0.8V186c-1.6,0-3.2,0.8-4.8,0.8C441.6,186.8,424,169.2,424,146.8z"></path><g><path style="fill:#52A85A;" d="M22.4,169.2c-1.6,0-3.2-1.6-3.2-3.2s1.6-3.2,3.2-3.2c10.4,0,19.2-8.8,19.2-19.2 c0-1.6,1.6-3.2,3.2-3.2c1.6,0,3.2,1.6,3.2,3.2C47.2,158.8,36.8,169.2,22.4,169.2z"></path><path style="fill:#52A85A;" d="M47.2,338c0,1.6-1.6,3.2-3.2,3.2c-1.6,0-3.2-1.6-3.2-3.2c0-10.4-8.8-19.2-19.2-19.2 c0,0.8-1.6-0.8-1.6-2.4s1.6-3.2,3.2-3.2C36.8,313.2,47.2,324.4,47.2,338z"></path><path style="fill:#52A85A;" d="M465.6,313.2c1.6,0,3.2,1.6,3.2,3.2s-1.6,3.2-3.2,3.2c-10.4,0-19.2,8.8-19.2,19.2 c0,1.6-1.6,3.2-3.2,3.2s-3.2-1.6-3.2-3.2C440.8,324.4,451.2,313.2,465.6,313.2z"></path><path style="fill:#52A85A;" d="M440.8,145.2c0-1.6,1.6-3.2,3.2-3.2s3.2,1.6,3.2,3.2c0,10.4,8.8,19.2,19.2,19.2 c1.6,0,3.2,1.6,3.2,3.2s-1.6,3.2-3.2,3.2C451.2,169.2,440.8,158.8,440.8,145.2z"></path></g><circle style="fill:#7EAA84;" cx="244" cy="241.2" r="78.4"></circle><path style="fill:#49754C;" d="M244,320.4c34.4,0,64-22.4,74.4-53.6l-25.6-25.6c-5.6-5.6-16-5.6-21.6,0l-5.6,5.6l-30.4-30.4 c-5.6-5.6-16-5.6-21.6,0L168,262C177.6,295.6,208,320.4,244,320.4z"></path><g><path style="fill:#5E8E63;" d="M281.6,252.4c5.6-5.6,15.2-5.6,21.6,0L292.8,242c-5.6-5.6-16-5.6-21.6,0l-5.6,5.6L276,258 L281.6,252.4z"></path><path style="fill:#5E8E63;" d="M178.4,273.2l45.6-45.6c5.6-5.6,16-5.6,21.6,0l-10.4-10.4c-5.6-5.6-16-5.6-21.6,0L168,262.8 c4,16,13.6,29.6,25.6,39.2C186.4,294,181.6,283.6,178.4,273.2z"></path></g><path style="fill:#99D1A0;" d="M244,327.6c-48,0-86.4-38.4-86.4-86.4s38.4-86.4,86.4-86.4s86.4,38.4,86.4,86.4S292,327.6,244,327.6z M244,170c-39.2,0-71.2,32-71.2,71.2s32,71.2,71.2,71.2s71.2-32,71.2-71.2S283.2,170,244,170z"></path><path style="fill:#95C19D;" d="M318.4,286c8-12.8,12-28,12-44c0-48-38.4-86.4-86.4-86.4c-36.8,0-68.8,23.2-80.8,56l13.6,6.4 c9.6-28,36-48,67.2-48c39.2,0,71.2,32,71.2,71.2c0,13.6-4,26.4-10.4,37.6L318.4,286z"></path><g><path style="fill:#B1DDB7;" d="M139.2,241.2c0,1.6-0.8,2.4-2.4,2.4H41.6c-1.6,0-2.4-0.8-2.4-2.4l0,0c0-1.6,0.8-2.4,2.4-2.4h95.2 C138.4,239.6,139.2,240.4,139.2,241.2L139.2,241.2z"></path><circle style="fill:#B1DDB7;" cx="29.6" cy="241.2" r="2.4"></circle><path style="fill:#B1DDB7;" d="M348.8,241.2c0-1.6,0.8-2.4,2.4-2.4h95.2c1.6,0,2.4,0.8,2.4,2.4l0,0c0,1.6-0.8,2.4-2.4,2.4h-95.2 C349.6,243.6,348.8,242.8,348.8,241.2L348.8,241.2z"></path><circle style="fill:#B1DDB7;" cx="458.4" cy="241.2" r="2.4"></circle></g><path style="fill:#95C19D;" d="M262.4,202.8c-7.2,0-13.6-6.4-13.6-13.6c0-1.6,0-3.2,0.8-4.8c-4.8,1.6-8.8,7.2-8.8,12.8 c0,7.2,6.4,13.6,13.6,13.6c5.6,0,10.4-3.2,12.8-8.8C266.4,202.8,264.8,202.8,262.4,202.8z"></path><g><circle style="fill:#4D9356;" cx="52.8" cy="199.6" r="2.4"></circle><circle style="fill:#4D9356;" cx="65.6" cy="199.6" r="2.4"></circle><circle style="fill:#4D9356;" cx="78.4" cy="199.6" r="2.4"></circle><circle style="fill:#4D9356;" cx="91.2" cy="199.6" r="2.4"></circle><path style="fill:#4D9356;" d="M106.4,199.6c0,1.6-0.8,2.4-2.4,2.4s-2.4-0.8-2.4-2.4s0.8-2.4,2.4-2.4S106.4,198.8,106.4,199.6z"></path><circle style="fill:#4D9356;" cx="116" cy="199.6" r="2.4"></circle><circle style="fill:#4D9356;" cx="128.8" cy="199.6" r="2.4"></circle><circle style="fill:#4D9356;" cx="141.6" cy="199.6" r="2.4"></circle><circle style="fill:#4D9356;" cx="52.8" cy="214" r="2.4"></circle><circle style="fill:#4D9356;" cx="65.6" cy="214" r="2.4"></circle><circle style="fill:#4D9356;" cx="78.4" cy="214" r="2.4"></circle><circle style="fill:#4D9356;" cx="91.2" cy="214" r="2.4"></circle><circle style="fill:#4D9356;" cx="103.2" cy="214" r="2.4"></circle><circle style="fill:#4D9356;" cx="116" cy="214" r="2.4"></circle><circle style="fill:#4D9356;" cx="128.8" cy="214" r="2.4"></circle><circle style="fill:#4D9356;" cx="141.6" cy="214" r="2.4"></circle><circle style="fill:#4D9356;" cx="52.8" cy="227.6" r="2.4"></circle><circle style="fill:#4D9356;" cx="65.6" cy="227.6" r="2.4"></circle><circle style="fill:#4D9356;" cx="78.4" cy="227.6" r="2.4"></circle><circle style="fill:#4D9356;" cx="91.2" cy="227.6" r="2.4"></circle><circle style="fill:#4D9356;" cx="103.2" cy="227.6" r="2.4"></circle><circle style="fill:#4D9356;" cx="116" cy="227.6" r="2.4"></circle><circle style="fill:#4D9356;" cx="128.8" cy="227.6" r="2.4"></circle><circle style="fill:#4D9356;" cx="141.6" cy="227.6" r="2.4"></circle><circle style="fill:#4D9356;" cx="52.8" cy="254.8" r="2.4"></circle><circle style="fill:#4D9356;" cx="65.6" cy="254.8" r="2.4"></circle><circle style="fill:#4D9356;" cx="78.4" cy="254.8" r="2.4"></circle><circle style="fill:#4D9356;" cx="91.2" cy="254.8" r="2.4"></circle><path style="fill:#4D9356;" d="M106.4,254.8c0,1.6-0.8,2.4-2.4,2.4s-2.4-0.8-2.4-2.4s0.8-2.4,2.4-2.4S106.4,254,106.4,254.8z"></path><circle style="fill:#4D9356;" cx="116" cy="254.8" r="2.4"></circle><circle style="fill:#4D9356;" cx="128.8" cy="254.8" r="2.4"></circle><circle style="fill:#4D9356;" cx="141.6" cy="254.8" r="2.4"></circle><circle style="fill:#4D9356;" cx="52.8" cy="269.2" r="2.4"></circle><circle style="fill:#4D9356;" cx="65.6" cy="269.2" r="2.4"></circle><circle style="fill:#4D9356;" cx="78.4" cy="269.2" r="2.4"></circle><circle style="fill:#4D9356;" cx="91.2" cy="269.2" r="2.4"></circle><circle style="fill:#4D9356;" cx="103.2" cy="269.2" r="2.4"></circle><circle style="fill:#4D9356;" cx="116" cy="269.2" r="2.4"></circle><circle style="fill:#4D9356;" cx="128.8" cy="269.2" r="2.4"></circle><circle style="fill:#4D9356;" cx="141.6" cy="269.2" r="2.4"></circle><circle style="fill:#4D9356;" cx="52.8" cy="282.8" r="2.4"></circle><circle style="fill:#4D9356;" cx="65.6" cy="282.8" r="2.4"></circle><circle style="fill:#4D9356;" cx="78.4" cy="282.8" r="2.4"></circle><circle style="fill:#4D9356;" cx="91.2" cy="282.8" r="2.4"></circle><circle style="fill:#4D9356;" cx="103.2" cy="282.8" r="2.4"></circle><circle style="fill:#4D9356;" cx="116" cy="282.8" r="2.4"></circle><circle style="fill:#4D9356;" cx="128.8" cy="282.8" r="2.4"></circle><circle style="fill:#4D9356;" cx="141.6" cy="282.8" r="2.4"></circle><circle style="fill:#4D9356;" cx="346.4" cy="199.6" r="2.4"></circle><circle style="fill:#4D9356;" cx="359.2" cy="199.6" r="2.4"></circle><circle style="fill:#4D9356;" cx="372" cy="199.6" r="2.4"></circle><circle style="fill:#4D9356;" cx="384.8" cy="199.6" r="2.4"></circle><path style="fill:#4D9356;" d="M400,199.6c0,1.6-0.8,2.4-2.4,2.4s-2.4-0.8-2.4-2.4s0.8-2.4,2.4-2.4 C398.4,197.2,400,198.8,400,199.6z"></path><circle style="fill:#4D9356;" cx="409.6" cy="199.6" r="2.4"></circle><circle style="fill:#4D9356;" cx="422.4" cy="199.6" r="2.4"></circle><circle style="fill:#4D9356;" cx="435.2" cy="199.6" r="2.4"></circle><circle style="fill:#4D9356;" cx="346.4" cy="214" r="2.4"></circle><circle style="fill:#4D9356;" cx="359.2" cy="214" r="2.4"></circle><circle style="fill:#4D9356;" cx="372" cy="214" r="2.4"></circle><circle style="fill:#4D9356;" cx="384.8" cy="214" r="2.4"></circle><circle style="fill:#4D9356;" cx="396.8" cy="214" r="2.4"></circle><circle style="fill:#4D9356;" cx="409.6" cy="214" r="2.4"></circle><circle style="fill:#4D9356;" cx="422.4" cy="214" r="2.4"></circle><circle style="fill:#4D9356;" cx="435.2" cy="214" r="2.4"></circle><circle style="fill:#4D9356;" cx="346.4" cy="227.6" r="2.4"></circle><circle style="fill:#4D9356;" cx="359.2" cy="227.6" r="2.4"></circle><circle style="fill:#4D9356;" cx="372" cy="227.6" r="2.4"></circle><circle style="fill:#4D9356;" cx="384.8" cy="227.6" r="2.4"></circle><circle style="fill:#4D9356;" cx="396.8" cy="227.6" r="2.4"></circle><circle style="fill:#4D9356;" cx="409.6" cy="227.6" r="2.4"></circle><circle style="fill:#4D9356;" cx="422.4" cy="227.6" r="2.4"></circle><circle style="fill:#4D9356;" cx="435.2" cy="227.6" r="2.4"></circle><circle style="fill:#4D9356;" cx="346.4" cy="254.8" r="2.4"></circle><circle style="fill:#4D9356;" cx="359.2" cy="254.8" r="2.4"></circle><circle style="fill:#4D9356;" cx="372" cy="254.8" r="2.4"></circle><circle style="fill:#4D9356;" cx="384.8" cy="254.8" r="2.4"></circle><path style="fill:#4D9356;" d="M400,254.8c0,1.6-0.8,2.4-2.4,2.4s-2.4-0.8-2.4-2.4s0.8-2.4,1.6-2.4C398.4,252.4,400,254,400,254.8z "></path><circle style="fill:#4D9356;" cx="409.6" cy="254.8" r="2.4"></circle><circle style="fill:#4D9356;" cx="422.4" cy="254.8" r="2.4"></circle><circle style="fill:#4D9356;" cx="435.2" cy="254.8" r="2.4"></circle><circle style="fill:#4D9356;" cx="346.4" cy="269.2" r="2.4"></circle><circle style="fill:#4D9356;" cx="359.2" cy="269.2" r="2.4"></circle><circle style="fill:#4D9356;" cx="372" cy="269.2" r="2.4"></circle><circle style="fill:#4D9356;" cx="384.8" cy="269.2" r="2.4"></circle><circle style="fill:#4D9356;" cx="396.8" cy="269.2" r="2.4"></circle><circle style="fill:#4D9356;" cx="409.6" cy="269.2" r="2.4"></circle><circle style="fill:#4D9356;" cx="422.4" cy="269.2" r="2.4"></circle><circle style="fill:#4D9356;" cx="435.2" cy="269.2" r="2.4"></circle><circle style="fill:#4D9356;" cx="346.4" cy="282.8" r="2.4"></circle><circle style="fill:#4D9356;" cx="359.2" cy="282.8" r="2.4"></circle><circle style="fill:#4D9356;" cx="372" cy="282.8" r="2.4"></circle><circle style="fill:#4D9356;" cx="384.8" cy="282.8" r="2.4"></circle><circle style="fill:#4D9356;" cx="396.8" cy="282.8" r="2.4"></circle><circle style="fill:#4D9356;" cx="409.6" cy="282.8" r="2.4"></circle><circle style="fill:#4D9356;" cx="422.4" cy="282.8" r="2.4"></circle><circle style="fill:#4D9356;" cx="435.2" cy="282.8" r="2.4"></circle></g></svg>