<?xml version="1.0" encoding="utf-8"?>
<!-- Generator: Adobe Illustrator 14.0.0, SVG Export Plug-In . SVG Version: 6.00 Build 43363)  -->
<!DOCTYPE svg PUBLIC "-//W3C//DTD SVG 1.1//EN" "http://www.w3.org/Graphics/SVG/1.1/DTD/svg11.dtd">
<svg version="1.1" id="Слой_1" xmlns="http://www.w3.org/2000/svg" xmlns:xlink="http://www.w3.org/1999/xlink" x="0px" y="0px"
	 width="20px" height="25px" viewBox="0 0 20 25" enable-background="new 0 0 20 25" xml:space="preserve">
<path fill="#FC0018" d="M18.342,17.926l-2.887,1.081c-0.093,0.032-0.195,0.026-0.284-0.017c-0.089-0.042-0.158-0.118-0.191-0.211
	l-1.5-3.801h-7L5,18.809c-0.033,0.094-0.101,0.169-0.19,0.211c-0.089,0.043-0.19,0.049-0.283,0.017l-2.881-1.081
	c-0.047-0.016-0.09-0.04-0.125-0.072c-0.037-0.032-0.067-0.07-0.089-0.115c-0.021-0.043-0.033-0.091-0.036-0.139
	c-0.005-0.049,0.003-0.098,0.019-0.145L7.239,1.839C7.463,1.295,7.843,0.83,8.332,0.502C8.821,0.175,9.396,0,9.984,0
	s1.164,0.175,1.652,0.502c0.489,0.327,0.869,0.792,1.093,1.336l5.841,15.617c0.016,0.046,0.022,0.095,0.02,0.143
	c-0.003,0.049-0.015,0.096-0.037,0.14c-0.021,0.043-0.05,0.082-0.087,0.115C18.43,17.885,18.388,17.91,18.342,17.926L18.342,17.926z
	 M10.442,5.811L9.983,4.486v-0.01l-2.637,7.5h5.275L10.442,5.811z M0.984,22h18.031c0.262,0,0.512,0.104,0.695,0.289
	C19.896,22.473,20,22.723,20,22.984v1.031c0,0.262-0.104,0.512-0.289,0.695C19.527,24.896,19.277,25,19.016,25H0.984
	c-0.262,0-0.512-0.104-0.695-0.289C0.104,24.527,0,24.277,0,24.016v-1.031c0-0.262,0.104-0.512,0.289-0.695
	C0.473,22.104,0.723,22,0.984,22L0.984,22z"/>
</svg>
