<?xml version="1.0" encoding="utf-8"?>
<!-- Generator: Adobe Illustrator 14.0.0, SVG Export Plug-In . SVG Version: 6.00 Build 43363)  -->
<!DOCTYPE svg PUBLIC "-//W3C//DTD SVG 1.1//EN" "http://www.w3.org/Graphics/SVG/1.1/DTD/svg11.dtd">
<svg version="1.1" id="Слой_1" xmlns="http://www.w3.org/2000/svg" xmlns:xlink="http://www.w3.org/1999/xlink" x="0px" y="0px"
	 width="34px" height="25px" viewBox="0 0 34 25" enable-background="new 0 0 34 25" xml:space="preserve">
<path fill="#1060AC" d="M4.344,0h5.663v20.578c0.012,1.16-0.438,2.278-1.25,3.107c-0.812,0.83-1.92,1.303-3.081,1.314H0.012V4.422
	C0,3.261,0.45,2.143,1.262,1.314C2.075,0.485,3.183,0.012,4.344,0L4.344,0z"/>
<path fill="#DF003F" d="M16.333,0h5.659v20.578c0.012,1.16-0.438,2.277-1.248,3.107c-0.813,0.829-1.92,1.302-3.08,1.314h-5.659
	V4.422c-0.012-1.16,0.438-2.278,1.248-3.107C14.065,0.485,15.173,0.013,16.333,0L16.333,0z"/>
<path fill="#48A83B" d="M28.337,0H34v20.578c0.012,1.16-0.438,2.278-1.25,3.107c-0.812,0.83-1.92,1.303-3.081,1.314h-5.663V4.422
	c-0.012-1.161,0.438-2.278,1.25-3.108C26.068,0.485,27.176,0.012,28.337,0L28.337,0z"/>
<path fill="#FFFFFF" d="M16.837,15.307c1.477-0.012,2.927-0.385,4.225-1.09v2.131c-1.219,0.438-2.505,0.657-3.8,0.652
	c-1.849,0.032-3.671-0.45-5.262-1.393V9.393C13.592,8.45,15.416,7.968,17.266,8c1.295-0.005,2.581,0.215,3.801,0.652v2.132
	c-1.299-0.704-2.749-1.079-4.226-1.091c-0.369,0-0.733,0.072-1.074,0.213c-0.341,0.141-0.649,0.347-0.91,0.608
	c-0.262,0.26-0.469,0.57-0.609,0.91s-0.214,0.705-0.215,1.074c0,0.369,0.072,0.733,0.213,1.075c0.141,0.34,0.348,0.649,0.607,0.91
	c0.262,0.261,0.57,0.468,0.91,0.609C16.104,15.232,16.468,15.306,16.837,15.307L16.837,15.307z"/>
<path fill="#FFFFFF" d="M5.173,17H3.966C2.614,16.925,1.279,16.661,0,16.217V14.4c1.11,0.646,2.354,1.028,3.635,1.115h0.3
	c1.354,0,2.073-0.746,2.073-1.666V8h4v5.6C10.005,15.473,7.99,17,5.173,17z"/>
<path fill="#FFFFFF" d="M32.306,16.324c0.417-0.418,0.658-0.98,0.674-1.571c-0.016-0.591-0.257-1.153-0.675-1.571
	c-0.418-0.419-0.98-0.661-1.571-0.676h-0.866c0.581-0.024,1.13-0.272,1.533-0.692c0.401-0.42,0.627-0.979,0.627-1.561
	S31.802,9.112,31.4,8.692C30.997,8.272,30.448,8.024,29.867,8H24v9h6.736C31.327,16.984,31.888,16.742,32.306,16.324z
	 M25.982,11.671h1.978c0.265,0,0.52-0.105,0.707-0.293s0.293-0.442,0.293-0.707s-0.105-0.52-0.293-0.707s-0.442-0.293-0.707-0.293
	h-1.978V11.671z M26.013,15.355h2.292c0.138,0.004,0.273-0.02,0.4-0.068c0.128-0.05,0.244-0.125,0.343-0.219
	c0.098-0.096,0.176-0.21,0.229-0.336c0.053-0.126,0.081-0.262,0.081-0.398s-0.028-0.271-0.081-0.397
	c-0.054-0.126-0.132-0.24-0.229-0.335c-0.099-0.096-0.215-0.17-0.343-0.219c-0.127-0.05-0.263-0.073-0.4-0.068h-2.292V15.355z"/>
</svg>
