<?xml version="1.0" encoding="utf-8"?>
<!-- Generator: Adobe Illustrator 14.0.0, SVG Export Plug-In . SVG Version: 6.00 Build 43363)  -->
<!DOCTYPE svg PUBLIC "-//W3C//DTD SVG 1.1//EN" "http://www.w3.org/Graphics/SVG/1.1/DTD/svg11.dtd">
<svg version="1.1" id="Слой_1" xmlns="http://www.w3.org/2000/svg" xmlns:xlink="http://www.w3.org/1999/xlink" x="0px" y="0px"
	 width="45px" height="25px" viewBox="0 0 45 25" enable-background="new 0 0 45 25" xml:space="preserve">
<path fill="#EC0020" d="M12.5,25C19.404,25,25,19.404,25,12.5C25,5.597,19.404,0,12.5,0S0,5.597,0,12.5C0,19.404,5.596,25,12.5,25z"
	/>
<path fill="#FE9A0C" d="M32.5,25C39.404,25,45,19.404,45,12.5C45,5.597,39.404,0,32.5,0S20,5.597,20,12.5
	C20,19.404,25.596,25,32.5,25z"/>
<path fill="#FFFFFF" d="M8.561,15.96H7.443l1.023-5.692H8.447l-2.09,5.692H5l-0.025-5.692H4.956l-0.83,5.692H3l1.225-6.991h1.75
	l0.075,5.446h0.019l1.983-5.446h1.73L8.564,15.96H8.561z M16.984,12.06c-0.494-0.098-0.997-0.135-1.5-0.109
	c-0.606,0.073-0.738,0.256-0.776,0.468c-0.139,0.783,2.62,0.032,2.285,1.847c-0.087,0.504-0.355,0.961-0.753,1.283
	c-0.399,0.322-0.901,0.488-1.413,0.467c-0.606,0.045-1.214-0.037-1.786-0.24l0.164-0.959c0.562,0.121,1.137,0.173,1.711,0.154
	c0.187,0.018,0.375-0.02,0.54-0.109c0.165-0.089,0.3-0.225,0.388-0.391c0.152-0.826-2.6-0.199-2.267-2.048
	c0.09-0.454,0.348-0.856,0.723-1.126c0.376-0.271,0.839-0.389,1.298-0.331c0.522,0.006,1.041,0.085,1.541,0.234l-0.152,0.862
	L16.984,12.06z M17.616,11.829l0.41-1.847h1.118l-0.24,0.925H19.6l-0.17,0.921h-0.7l-0.492,2.669
	c-0.051,0.293-0.063,0.399,0.391,0.399c0.079,0,0.157-0.008,0.234-0.021l-0.158,0.994c-0.177,0.008-0.379,0.132-0.556,0.132H18.01
	c-0.154,0.032-0.315,0.021-0.463-0.032c-0.149-0.054-0.279-0.148-0.377-0.271c-0.098-0.125-0.159-0.273-0.177-0.43
	c-0.017-0.157,0.009-0.316,0.077-0.459l0.543-2.983L17.616,11.829z M20.31,13.959c-0.046,0.125-0.06,0.258-0.04,0.389
	c0.019,0.132,0.071,0.256,0.15,0.361c0.08,0.106,0.184,0.191,0.305,0.246c0.12,0.055,0.253,0.079,0.385,0.07
	c0.696,0.047,1.387-0.152,1.951-0.564l-0.177,0.922c-0.572,0.424-1.28,0.624-1.989,0.563c-1.193,0-2-0.664-1.623-2.684
	c0.114-0.592,0.638-2.494,2.494-2.494c0.84,0,1.914,0.719,1.5,2.964l-0.037,0.227H20.31L20.31,13.959z M22.231,13
	c0.083-0.8-0.315-1.163-0.675-1.163c-0.278,0.054-0.531,0.196-0.721,0.406C20.644,12.453,20.527,12.718,20.5,13h1.736H22.231z
	 M23.968,10.995h1.067l-0.158,0.754H24.9c0.115-0.269,0.301-0.501,0.537-0.672c0.237-0.171,0.517-0.275,0.808-0.301
	c0.075,0,0.239,0.037,0.31,0.044l-0.41,1.28c-0.174-0.027-0.353-0.018-0.523,0.027c-0.171,0.044-0.331,0.123-0.471,0.23
	c-0.139,0.108-0.254,0.244-0.34,0.398s-0.139,0.325-0.156,0.5l-0.467,2.754h-1.119L23.968,10.995L23.968,10.995z M30.718,10.462
	c-0.413-0.264-0.915-0.354-1.395-0.249c-0.568,0.1-1.5,0.439-1.851,2.318c-0.177,0.958-0.082,2.105,0.84,2.324
	c0.317,0.08,0.648,0.088,0.971,0.026s0.626-0.192,0.892-0.384l-0.3,1.207c-0.133,0.051-0.253,0.388-1.635,0.3
	c-1.528-0.1-2.406-1.2-1.983-3.495c0.423-2.318,1.8-3.518,3.283-3.5c0.261,0,0.521,0.056,0.758,0.163
	c0.238,0.107,0.451,0.263,0.625,0.458l-0.2,0.834L30.718,10.462z M40.796,15.962H39.7l0.112-0.755H39.8
	c-0.147,0.229-0.351,0.416-0.59,0.545s-0.508,0.195-0.78,0.193c-1.263,0-1.554-1.287-1.308-2.639c0.315-1.701,1.3-2.54,2.235-2.54
	c0.242-0.015,0.481,0.053,0.679,0.193c0.198,0.14,0.342,0.343,0.407,0.576h0.02l0.43-2.55h1.117L40.8,15.96L40.796,15.962z
	 M38.902,14.885c0.341-0.051,0.652-0.221,0.882-0.479c0.228-0.258,0.358-0.588,0.368-0.934c0.145-0.79,0.095-1.587-0.67-1.587
	c-0.349,0.07-0.662,0.26-0.885,0.537c-0.224,0.276-0.344,0.622-0.34,0.978C38.15,13.979,38.188,14.885,38.902,14.885L38.902,14.885z
	 M34.052,14.775c0,0-0.106,0.526-0.132,0.789l-0.057,0.443h-0.991c-0.022-0.257-0.022-0.516,0-0.771
	c-0.187,0.217-0.416,0.393-0.674,0.515c-0.259,0.122-0.54,0.188-0.826,0.194c-0.175,0.01-0.349-0.025-0.507-0.101
	c-0.159-0.075-0.295-0.189-0.398-0.331c-0.102-0.143-0.167-0.308-0.189-0.481c-0.021-0.174,0-0.351,0.064-0.513
	c0.044-0.395,0.219-0.764,0.496-1.049c0.276-0.283,0.641-0.469,1.033-0.523l1.035-0.176c0.183-0.029,0.41,0.11,0.467-0.168
	c0.02-0.088,0.018-0.18-0.006-0.267c-0.024-0.087-0.07-0.167-0.133-0.232c-0.063-0.065-0.141-0.114-0.227-0.142
	s-0.177-0.034-0.266-0.018c-0.588-0.022-1.172,0.088-1.711,0.322l0.252-0.958c0.553-0.269,1.169-0.38,1.781-0.323
	c0.6,0.023,1.653,0.213,1.451,1.4l-0.461,2.384L34.052,14.775z M33.175,13.422c-0.245,0.151-0.522,0.242-0.809,0.264
	c-0.212,0-0.418,0.074-0.581,0.211c-0.163,0.136-0.271,0.325-0.309,0.535c-0.028,0.065-0.039,0.138-0.033,0.209
	c0.008,0.072,0.033,0.141,0.074,0.2s0.097,0.106,0.16,0.14c0.065,0.031,0.137,0.047,0.208,0.043
	c0.277-0.006,0.544-0.104,0.757-0.281s0.361-0.42,0.418-0.691L33.175,13.422z M35.088,10.994h1.066L36,11.84h0.02
	c0.115-0.268,0.301-0.5,0.537-0.672c0.237-0.171,0.517-0.275,0.808-0.301c0.075,0,0.239,0.037,0.31,0.044l-0.41,1.279
	c-0.08-0.013-0.16-0.018-0.24-0.015c-0.153-0.012-0.308,0.006-0.453,0.053c-0.146,0.047-0.281,0.124-0.397,0.224
	c-0.116,0.101-0.212,0.223-0.28,0.36c-0.068,0.137-0.109,0.287-0.119,0.44l-0.467,2.754h-1.119l0.9-5.014V10.994z M12.788,14.775
	c0,0-0.107,0.526-0.133,0.789l-0.056,0.444H11.6c-0.022-0.257-0.022-0.516,0-0.772c-0.181,0.227-0.409,0.414-0.667,0.547
	c-0.259,0.133-0.543,0.209-0.833,0.225c-0.178,0-0.353-0.043-0.511-0.125c-0.158-0.084-0.293-0.203-0.394-0.35
	s-0.165-0.314-0.187-0.492c-0.022-0.176,0-0.355,0.063-0.521c0.044-0.395,0.219-0.764,0.495-1.048
	c0.277-0.284,0.64-0.47,1.033-0.524l1.036-0.176c0.11-0.004,0.214-0.044,0.299-0.115c0.084-0.07,0.143-0.166,0.168-0.272
	c0.095-0.548-0.347-0.463-0.631-0.471c-0.588-0.022-1.173,0.088-1.712,0.322l0.253-0.958c0.553-0.268,1.169-0.379,1.781-0.322
	c0.6,0.023,1.654,0.213,1.452,1.4l-0.461,2.417L12.788,14.775z M11.91,13.422c-0.244,0.151-0.521,0.242-0.808,0.264
	c-0.212,0-0.418,0.074-0.581,0.211c-0.163,0.136-0.272,0.325-0.309,0.535c-0.028,0.065-0.039,0.138-0.032,0.209
	c0.007,0.072,0.032,0.141,0.073,0.2s0.097,0.106,0.161,0.14c0.065,0.031,0.136,0.047,0.208,0.043
	c0.277-0.006,0.544-0.104,0.757-0.281s0.361-0.42,0.418-0.691L11.91,13.422L11.91,13.422z"/>
<path fill="#FFFFFF" d="M8.561,15.96H7.443l1.023-5.692H8.447l-2.09,5.692H5l-0.025-5.692H4.956l-0.83,5.692H3l1.225-6.991h1.75
	l0.075,5.446h0.019l1.983-5.446h1.73L8.564,15.96H8.561z M16.984,12.06c-0.494-0.098-0.997-0.135-1.5-0.109
	c-0.606,0.073-0.738,0.256-0.776,0.468c-0.139,0.783,2.62,0.032,2.285,1.847c-0.087,0.504-0.355,0.961-0.753,1.283
	c-0.399,0.322-0.901,0.488-1.413,0.467c-0.606,0.045-1.214-0.037-1.786-0.24l0.164-0.959c0.562,0.121,1.137,0.173,1.711,0.154
	c0.187,0.018,0.375-0.02,0.54-0.109c0.165-0.089,0.3-0.225,0.388-0.391c0.152-0.826-2.6-0.199-2.267-2.048
	c0.09-0.454,0.348-0.856,0.723-1.126c0.376-0.271,0.839-0.389,1.298-0.331c0.522,0.006,1.041,0.085,1.541,0.234l-0.152,0.862
	L16.984,12.06z M17.616,11.829l0.41-1.847h1.118l-0.24,0.925H19.6l-0.17,0.921h-0.7l-0.492,2.669
	c-0.051,0.293-0.063,0.399,0.391,0.399c0.079,0,0.157-0.008,0.234-0.021l-0.158,0.994c-0.177,0.008-0.379,0.132-0.556,0.132H18.01
	c-0.154,0.032-0.315,0.021-0.463-0.032c-0.149-0.054-0.279-0.148-0.377-0.271c-0.098-0.125-0.159-0.273-0.177-0.43
	c-0.017-0.157,0.009-0.316,0.077-0.459l0.543-2.983L17.616,11.829z M20.31,13.959c-0.046,0.125-0.06,0.258-0.04,0.389
	c0.019,0.132,0.071,0.256,0.15,0.361c0.08,0.106,0.184,0.191,0.305,0.246c0.12,0.055,0.253,0.079,0.385,0.07
	c0.696,0.047,1.387-0.152,1.951-0.564l-0.177,0.922c-0.572,0.424-1.28,0.624-1.989,0.563c-1.193,0-2-0.664-1.623-2.684
	c0.114-0.592,0.638-2.494,2.494-2.494c0.84,0,1.914,0.719,1.5,2.964l-0.037,0.227H20.31L20.31,13.959z M22.231,13
	c0.083-0.8-0.315-1.163-0.675-1.163c-0.278,0.054-0.531,0.196-0.721,0.406C20.644,12.453,20.527,12.718,20.5,13h1.736H22.231z
	 M23.968,10.995h1.067l-0.158,0.754H24.9c0.115-0.269,0.301-0.501,0.537-0.672c0.237-0.171,0.517-0.275,0.808-0.301
	c0.075,0,0.239,0.037,0.31,0.044l-0.41,1.28c-0.174-0.027-0.353-0.018-0.523,0.027c-0.171,0.044-0.331,0.123-0.471,0.23
	c-0.139,0.108-0.254,0.244-0.34,0.398s-0.139,0.325-0.156,0.5l-0.467,2.754h-1.119L23.968,10.995L23.968,10.995z M30.718,10.462
	c-0.413-0.264-0.915-0.354-1.395-0.249c-0.568,0.1-1.5,0.439-1.851,2.318c-0.177,0.958-0.082,2.105,0.84,2.324
	c0.317,0.08,0.648,0.088,0.971,0.026s0.626-0.192,0.892-0.384l-0.3,1.207c-0.133,0.051-0.253,0.388-1.635,0.3
	c-1.528-0.1-2.406-1.2-1.983-3.495c0.423-2.318,1.8-3.518,3.283-3.5c0.261,0,0.521,0.056,0.758,0.163
	c0.238,0.107,0.451,0.263,0.625,0.458l-0.2,0.834L30.718,10.462z M40.796,15.962H39.7l0.112-0.755H39.8
	c-0.147,0.229-0.351,0.416-0.59,0.545s-0.508,0.195-0.78,0.193c-1.263,0-1.554-1.287-1.308-2.639c0.315-1.701,1.3-2.54,2.235-2.54
	c0.242-0.015,0.481,0.053,0.679,0.193c0.198,0.14,0.342,0.343,0.407,0.576h0.02l0.43-2.55h1.117L40.8,15.96L40.796,15.962z
	 M38.902,14.885c0.341-0.051,0.652-0.221,0.882-0.479c0.228-0.258,0.358-0.588,0.368-0.934c0.145-0.79,0.095-1.587-0.67-1.587
	c-0.349,0.07-0.662,0.26-0.885,0.537c-0.224,0.276-0.344,0.622-0.34,0.978C38.15,13.979,38.188,14.885,38.902,14.885L38.902,14.885z
	 M34.052,14.775c0,0-0.106,0.526-0.132,0.789l-0.057,0.443h-0.991c-0.022-0.257-0.022-0.516,0-0.771
	c-0.187,0.217-0.416,0.393-0.674,0.515c-0.259,0.122-0.54,0.188-0.826,0.194c-0.175,0.01-0.349-0.025-0.507-0.101
	c-0.159-0.075-0.295-0.189-0.398-0.331c-0.102-0.143-0.167-0.308-0.189-0.481c-0.021-0.174,0-0.351,0.064-0.513
	c0.044-0.395,0.219-0.764,0.496-1.049c0.276-0.283,0.641-0.469,1.033-0.523l1.035-0.176c0.183-0.029,0.41,0.11,0.467-0.168
	c0.02-0.088,0.018-0.18-0.006-0.267c-0.024-0.087-0.07-0.167-0.133-0.232c-0.063-0.065-0.141-0.114-0.227-0.142
	s-0.177-0.034-0.266-0.018c-0.588-0.022-1.172,0.088-1.711,0.322l0.252-0.958c0.553-0.269,1.169-0.38,1.781-0.323
	c0.6,0.023,1.653,0.213,1.451,1.4l-0.461,2.384L34.052,14.775z M33.175,13.422c-0.245,0.151-0.522,0.242-0.809,0.264
	c-0.212,0-0.418,0.074-0.581,0.211c-0.163,0.136-0.271,0.325-0.309,0.535c-0.028,0.065-0.039,0.138-0.033,0.209
	c0.008,0.072,0.033,0.141,0.074,0.2s0.097,0.106,0.16,0.14c0.065,0.031,0.137,0.047,0.208,0.043
	c0.277-0.006,0.544-0.104,0.757-0.281s0.361-0.42,0.418-0.691L33.175,13.422z M35.088,10.994h1.066L36,11.84h0.02
	c0.115-0.268,0.301-0.5,0.537-0.672c0.237-0.171,0.517-0.275,0.808-0.301c0.075,0,0.239,0.037,0.31,0.044l-0.41,1.279
	c-0.08-0.013-0.16-0.018-0.24-0.015c-0.153-0.012-0.308,0.006-0.453,0.053c-0.146,0.047-0.281,0.124-0.397,0.224
	c-0.116,0.101-0.212,0.223-0.28,0.36c-0.068,0.137-0.109,0.287-0.119,0.44l-0.467,2.754h-1.119l0.9-5.014V10.994z M12.788,14.775
	c0,0-0.107,0.526-0.133,0.789l-0.056,0.444H11.6c-0.022-0.257-0.022-0.516,0-0.772c-0.181,0.227-0.409,0.414-0.667,0.547
	c-0.259,0.133-0.543,0.209-0.833,0.225c-0.178,0-0.353-0.043-0.511-0.125c-0.158-0.084-0.293-0.203-0.394-0.35
	s-0.165-0.314-0.187-0.492c-0.022-0.176,0-0.355,0.063-0.521c0.044-0.395,0.219-0.764,0.495-1.048
	c0.277-0.284,0.64-0.47,1.033-0.524l1.036-0.176c0.11-0.004,0.214-0.044,0.299-0.115c0.084-0.07,0.143-0.166,0.168-0.272
	c0.095-0.548-0.347-0.463-0.631-0.471c-0.588-0.022-1.173,0.088-1.712,0.322l0.253-0.958c0.553-0.268,1.169-0.379,1.781-0.322
	c0.6,0.023,1.654,0.213,1.452,1.4l-0.461,2.417L12.788,14.775z M11.91,13.422c-0.244,0.151-0.521,0.242-0.808,0.264
	c-0.212,0-0.418,0.074-0.581,0.211c-0.163,0.136-0.272,0.325-0.309,0.535c-0.028,0.065-0.039,0.138-0.032,0.209
	c0.007,0.072,0.032,0.141,0.073,0.2s0.097,0.106,0.161,0.14c0.065,0.031,0.136,0.047,0.208,0.043
	c0.277-0.006,0.544-0.104,0.757-0.281s0.361-0.42,0.418-0.691L11.91,13.422L11.91,13.422z"/>
</svg>
