<?xml version="1.0" encoding="utf-8"?>
<!-- Generator: Adobe Illustrator 14.0.0, SVG Export Plug-In . SVG Version: 6.00 Build 43363)  -->
<!DOCTYPE svg PUBLIC "-//W3C//DTD SVG 1.1//EN" "http://www.w3.org/Graphics/SVG/1.1/DTD/svg11.dtd">
<svg version="1.1" id="Слой_1" xmlns="http://www.w3.org/2000/svg" xmlns:xlink="http://www.w3.org/1999/xlink" x="0px" y="0px"
	 width="86.029px" height="12px" viewBox="0 0 86.029 12" enable-background="new 0 0 86.029 12" xml:space="preserve">
<g>
	<path fill="#CC1626" d="M38.687,8.417c-0.478,0.598-1.313,0.896-2.089,0.896c-2.09,0-3.105-1.433-3.105-3.403V2.328h1.612v3.522
		c0,1.194,0.478,1.97,1.731,1.97c1.313,0,1.91-0.955,1.91-2.209V2.328h1.552v6.089c0,2.149-1.313,3.582-3.462,3.582
		c-1.134,0-2.209-0.357-3.045-1.074l-0.06-0.06l0.896-1.015l0.06,0.06c0.657,0.417,1.373,0.656,2.149,0.656
		c1.194,0,1.91-0.656,1.91-1.851V8.417H38.687z M30.388,8.537c-0.597,0.598-1.433,0.956-2.269,0.956
		c-2.03,0-3.522-1.612-3.522-3.642c0-1.97,1.492-3.642,3.522-3.642c0.836,0,1.672,0.358,2.269,0.955V2.269h1.552v7.105h-1.552V8.537
		z M19.045,6.746h1.492h0.299c0.478,0,0.896-0.059,1.313-0.238c0.418-0.179,0.776-0.417,1.074-0.716
		c0.299-0.298,0.538-0.657,0.717-1.075c0.179-0.418,0.239-0.836,0.239-1.313s-0.06-0.896-0.239-1.313
		c-0.179-0.417-0.418-0.776-0.717-1.075c-0.298-0.298-0.656-0.537-1.074-0.716S21.313,0,20.836,0h-3.463v9.313h1.672V6.746z
		 M19.045,5.075V1.731h1.791c0.478,0,0.836,0.179,1.194,0.478c0.358,0.298,0.478,0.716,0.478,1.194s-0.179,0.836-0.478,1.194
		c-0.358,0.358-0.716,0.478-1.194,0.478h-0.299H19.045z M28.239,7.94c0.358,0,0.776-0.119,1.075-0.299
		c0.657-0.357,0.955-1.074,0.955-1.791c0-0.776-0.358-1.433-1.015-1.851c-0.299-0.179-0.657-0.239-1.015-0.239
		c-0.358,0-0.716,0.119-1.015,0.298c-0.656,0.358-1.015,1.075-1.015,1.851c0,0.716,0.358,1.374,0.955,1.792
		C27.522,7.821,27.88,7.94,28.239,7.94z"/>
	<path fill="#FFCC00" d="M83.164,3.224c0.656-0.716,1.492-1.015,2.507-1.015h0.358v1.552h-0.656c-1.493,0-2.149,1.015-2.149,2.447
		v3.104h-1.612V2.209h1.612v1.015H83.164z M75.224,5.015h3.642c0-0.119-0.06-0.239-0.12-0.358C78.447,4,77.79,3.642,77.074,3.642
		c-0.776,0-1.552,0.417-1.791,1.194C75.224,4.896,75.224,4.955,75.224,5.015z M59.104,5.015h3.642c0-0.119-0.06-0.239-0.12-0.358
		C62.328,4,61.671,3.642,60.955,3.642c-0.776,0-1.553,0.417-1.791,1.194C59.104,4.896,59.104,4.955,59.104,5.015z M51.283,5.015
		h3.642c0-0.119-0.06-0.239-0.119-0.358C54.507,4,53.851,3.642,53.134,3.642c-0.776,0-1.552,0.417-1.791,1.194
		C51.283,4.896,51.283,4.955,51.283,5.015z M66.985,5.851c0,2.866,3.999,2.627,3.999,0C70.925,3.164,66.985,2.925,66.985,5.851z
		 M75.104,6.269c0.06,1.134,0.956,1.671,2.03,1.671c0.776,0,1.492-0.179,2.149-0.597l0.06-0.06l0.896,0.955l-0.119,0.06
		c-0.896,0.657-1.91,1.075-3.045,1.075c-2.149,0-3.642-1.493-3.642-3.642c0-2.089,1.492-3.642,3.582-3.642
		c1.433,0,2.566,0.657,3.164,2.03c0.238,0.538,0.299,1.433,0.119,2.03v0.06h-5.194V6.269z M58.984,6.269
		c0.06,1.134,0.956,1.671,2.03,1.671c0.776,0,1.492-0.179,2.149-0.597l0.059-0.06l0.896,0.955L64,8.298
		c-0.896,0.657-1.911,1.075-3.045,1.075c-2.149,0-3.642-1.493-3.642-3.642c0-2.089,1.492-3.642,3.582-3.642
		c1.433,0,2.566,0.657,3.164,2.03c0.238,0.538,0.298,1.433,0.119,2.03v0.06L58.984,6.269z M51.164,6.269
		c0.06,1.134,0.955,1.671,2.029,1.671c0.776,0,1.493-0.179,2.149-0.597l0.06-0.06l0.896,0.955l-0.059,0.119
		c-0.896,0.657-1.911,1.074-3.046,1.074c-2.148,0-3.642-1.492-3.642-3.641c0-2.089,1.493-3.642,3.582-3.642
		c1.434,0,2.567,0.657,3.164,2.03c0.239,0.537,0.299,1.433,0.12,2.029v0.061H51.164z M45.851,4.657l3.881,4.656h-2.209l-3.762-4.656
		L47.522,0h2.209L45.851,4.657z M41.91,0h1.672v9.313H41.91V0z M65.791,4.239l0.06-0.12c0,0,0,0,0-0.06l0.06-0.119V3.88
		c0,0,0-0.06,0.06-0.06c0,0,0,0,0-0.06v-0.06c0-0.06,0.06-0.06,0.06-0.12c0,0,0,0,0-0.06c0.657-0.896,1.672-1.373,2.806-1.373h0.12
		c1.97,0.06,3.403,1.671,3.403,3.642s-1.493,3.641-3.523,3.641c-0.775,0-1.552-0.357-2.029-0.896v3.344h-1.553V5.671
		c0-0.417,0.12-0.896,0.299-1.313v-0.06v-0.06H65.791z"/>
	<path fill="#CC1626" d="M0,9.374l4.657-4.657L0,0c1.134,0,2.329,0,3.463,0L8.12,4.657L3.463,9.313C2.329,9.374,1.134,9.374,0,9.374
		z M6.149,9.374l4.657-4.657L6.149,0c1.134,0,2.328,0,3.463,0l4.716,4.657L9.672,9.313C8.478,9.374,7.343,9.374,6.149,9.374z"/>
</g>
</svg>
