<?xml version="1.0" encoding="utf-8"?>
<!-- Generator: Adobe Illustrator 14.0.0, SVG Export Plug-In . SVG Version: 6.00 Build 43363)  -->
<!DOCTYPE svg PUBLIC "-//W3C//DTD SVG 1.1//EN" "http://www.w3.org/Graphics/SVG/1.1/DTD/svg11.dtd">
<svg version="1.1" id="Слой_1" xmlns="http://www.w3.org/2000/svg" xmlns:xlink="http://www.w3.org/1999/xlink" x="0px" y="0px"
	 width="27.611px" height="28.854px" viewBox="0 0 27.611 28.854" enable-background="new 0 0 27.611 28.854" xml:space="preserve">
<path fill="#F78300" d="M22.988,19.932c-0.197-1.013-0.726-1.931-1.5-2.612c-0.268-0.26-0.57-0.479-0.9-0.651
	c-0.168-0.1-0.346-0.183-0.529-0.249c-0.472-0.203-0.986-0.289-1.5-0.248c0.4-0.145,0.826-0.198,1.249-0.158
	c0.36,0.051,0.714,0.134,1.06,0.249c0.283,0.153,0.563,0.31,0.843,0.467c0.616-2.186,0.496-4.514-0.343-6.624
	c-0.678-1.791-1.779-3.392-3.211-4.664c-1.453-1.358-3.256-2.285-5.206-2.674c-1.134-0.22-2.3-0.209-3.43,0.031
	c-0.957,0.25-1.856,0.683-2.649,1.274c-0.735,0.589-1.358,1.305-1.84,2.115C4.89,6.384,4.765,6.593,4.658,6.81
	c-0.1,0.235-0.2,0.46-0.311,0.683c-0.188,0.494-0.334,1.002-0.439,1.52c-0.252,1.154-0.294,2.345-0.124,3.514
	c0.137,1.06,0.421,2.096,0.842,3.078c0.226,0.438,0.433,0.9,0.684,1.307c0.249,0.398,0.52,0.782,0.812,1.15
	c0.62,0.693,1.321,1.309,2.088,1.835c1.755,1.189,3.805,1.867,5.923,1.958c0.002-0.15-0.029-0.299-0.094-0.435
	c-0.037-0.149-0.052-0.321-0.094-0.466c-0.04-0.352-0.04-0.706,0-1.058c0.074,0.055,0.129,0.131,0.157,0.218
	c0.035,0.074,0.09,0.139,0.156,0.187c0.082,0.152,0.176,0.298,0.279,0.437c0.207,0.268,0.449,0.508,0.718,0.713
	c0.26,0.225,0.542,0.424,0.842,0.592c0.295,0.188,0.608,0.344,0.935,0.466c0.725,0.307,1.492,0.496,2.276,0.562
	c0.832,0.111,1.636,0.252,2.4,0.435c0.698,0.199,1.368,0.481,2,0.839c0.302,0.168,0.594,0.354,0.872,0.561
	c0.146,0.088,0.283,0.191,0.406,0.311c0.164,0.066,0.235,0.22,0.399,0.279c0.495,0.451,0.954,0.939,1.372,1.463
	c0.2,0.285,0.377,0.586,0.529,0.899c0.115,0.124,0.147,0.329,0.25,0.466c0.041,0.081,0.066,0.17,0.072,0.262
	s-0.009,0.183-0.041,0.268c-0.231,0.033-0.185-0.211-0.281-0.311c-0.086-0.115-0.16-0.241-0.219-0.373
	c-0.365-0.383-0.691-0.801-1.09-1.151c-0.386-0.358-0.804-0.682-1.248-0.964c-0.926-0.646-1.961-1.12-3.055-1.4
	c-1.288-0.353-2.627-0.479-3.958-0.373c-0.626,0.068-1.242,0.203-1.84,0.4c-0.627,0.139-1.261,0.242-1.9,0.311
	c-2.507,0.131-5.01-0.338-7.3-1.367c-0.99-0.438-1.913-1.014-2.742-1.711c-0.417-0.326-0.804-0.689-1.154-1.088
	c-0.357-0.389-0.671-0.816-0.935-1.274c-0.301-0.459-0.572-0.937-0.811-1.431c-0.224-0.537-0.411-1.087-0.561-1.648
	c-0.196-0.605-0.321-1.232-0.373-1.866c-0.012-0.187-0.1-0.547-0.1-0.84c0.014-0.03,0.025-0.061,0.032-0.093
	c-0.045-0.298-0.045-0.602,0-0.9c0.004-0.659,0.077-1.316,0.218-1.96c0.11-0.592,0.266-1.174,0.468-1.742
	c0.186-0.56,0.431-1.062,0.654-1.586C1.524,7.259,1.638,7,1.774,6.768c0.119-0.244,0.3-0.428,0.406-0.684
	c0.09-0.098,0.173-0.202,0.249-0.311c0.048-0.138,0.178-0.2,0.218-0.341C2.749,5.345,2.834,5.239,2.896,5.12
	C3,5.036,3.085,4.93,3.146,4.81c0.371-0.365,0.7-0.77,1.091-1.119c0.391-0.349,0.818-0.676,1.216-1.026
	c0.253-0.12,0.436-0.311,0.685-0.436c0.19-0.173,0.467-0.26,0.655-0.434C7.289,1.53,7.799,1.291,8.321,1.079
	c0.525-0.235,1.067-0.433,1.621-0.591c1.27-0.349,2.584-0.506,3.9-0.466c0.053,0.007,0.081-0.053,0.093,0
	c2.368,0.039,4.675,0.763,6.64,2.083c1.738,1.157,3.138,2.756,4.054,4.633c1.075,2.253,1.435,4.782,1.028,7.246
	c-0.267,1.685-0.883,3.294-1.809,4.727c-0.124,0.231-0.27,0.45-0.436,0.653c-0.057,0.113-0.131,0.218-0.219,0.311
	c-0.037,0.055-0.08,0.106-0.125,0.154c-0.004,0.016-0.012,0.029-0.022,0.04s-0.024,0.019-0.039,0.023
	C23.027,19.958,22.99,19.966,22.988,19.932z M22.24,20.742c-0.308-0.227-0.52-0.559-0.594-0.934c-0.041-0.143-0.041-0.293,0-0.436
	c0.02-0.014,0.041-0.024,0.063-0.031c0.053-0.014,0.108-0.016,0.163-0.004c0.054,0.011,0.104,0.033,0.148,0.066
	c0.182,0.228,0.31,0.493,0.373,0.777c0.033,0.099,0.035,0.204,0.008,0.305C22.375,20.585,22.318,20.674,22.24,20.742z
	 M19.497,20.213c0.005-0.035,0.03-0.019,0.03,0c0.248,0.025,0.475,0.147,0.633,0.34s0.232,0.438,0.209,0.687
	c-0.012,0.143-0.071,0.276-0.166,0.383c-0.096,0.106-0.225,0.179-0.364,0.207c-0.164,0.006-0.328-0.031-0.474-0.105
	c-0.146-0.076-0.271-0.188-0.361-0.325c-0.09-0.138-0.145-0.296-0.155-0.46c-0.012-0.164,0.019-0.328,0.091-0.477
	c0.064-0.086,0.149-0.152,0.246-0.196C19.283,20.222,19.391,20.205,19.497,20.213L19.497,20.213z"/>
</svg>
