<?xml version="1.0" encoding="utf-8"?>
<!-- Generator: Adobe Illustrator 14.0.0, SVG Export Plug-In . SVG Version: 6.00 Build 43363)  -->
<!DOCTYPE svg PUBLIC "-//W3C//DTD SVG 1.1//EN" "http://www.w3.org/Graphics/SVG/1.1/DTD/svg11.dtd">
<svg version="1.1" id="Слой_1" xmlns="http://www.w3.org/2000/svg" xmlns:xlink="http://www.w3.org/1999/xlink" x="0px" y="0px"
	 width="26px" height="26px" viewBox="0 0 26 26" enable-background="new 0 0 26 26" xml:space="preserve">
<path fill="#21A038" d="M23.285,5.071c0.615,0.794,1.127,1.665,1.563,2.587l-11.835,8.735l-4.969-3.125v-3.74l4.944,3.1
	L23.285,5.071z"/>
<linearGradient id="SVGID_1_" gradientUnits="userSpaceOnUse" x1="-167.4736" y1="190.1206" x2="-167.8906" y2="192.1154" gradientTransform="matrix(2.8737 0 0 -4.7565 484.8568 926.1107)">
	<stop  offset="0.1444" style="stop-color:#F2E913"/>
	<stop  offset="0.3037" style="stop-color:#E7E518"/>
	<stop  offset="0.5823" style="stop-color:#CADB26"/>
	<stop  offset="0.891" style="stop-color:#A3CD39"/>
</linearGradient>
<path fill="url(#SVGID_1_)" d="M2.997,13.009c0-0.179,0-0.333,0.026-0.512l-2.998-0.154C0.025,12.548,0,12.779,0,12.984
	c0,3.586,1.46,6.839,3.817,9.196l2.126-2.127C4.124,18.261,2.997,15.776,2.997,13.009L2.997,13.009z"/>
<linearGradient id="SVGID_2_" gradientUnits="userSpaceOnUse" x1="-222.668" y1="155.5854" x2="-220.8908" y2="155.9946" gradientTransform="matrix(4.7565 0 0 -2.8737 1063.8179 450.7018)">
	<stop  offset="0.0592" style="stop-color:#0FA8E0"/>
	<stop  offset="0.5385" style="stop-color:#0099F9"/>
	<stop  offset="0.9234" style="stop-color:#0291EB"/>
</linearGradient>
<path fill="url(#SVGID_2_)" d="M12.987,3.02c0.179,0,0.333,0,0.513,0.025l0.153-2.997c-0.205,0-0.436-0.025-0.641-0.025
	c-3.586,0-6.839,1.46-9.196,3.816l2.126,2.126C7.736,4.147,10.247,3.02,12.987,3.02L12.987,3.02z"/>
<linearGradient id="SVGID_3_" gradientUnits="userSpaceOnUse" x1="-221.104" y1="148.6899" x2="-219.0942" y2="148.9644" gradientTransform="matrix(4.7565 0 0 -2.8737 1063.8179 450.7018)">
	<stop  offset="0.1226" style="stop-color:#A3CD39"/>
	<stop  offset="0.2846" style="stop-color:#86C339"/>
	<stop  offset="0.8693" style="stop-color:#21A038"/>
</linearGradient>
<path fill="url(#SVGID_3_)" d="M12.987,23.002c-0.179,0-0.333,0-0.512-0.025l-0.154,2.997c0.205,0,0.436,0.026,0.641,0.026
	c3.586,0,6.839-1.46,9.196-3.817l-2.126-2.126C18.238,21.902,15.754,23.002,12.987,23.002L12.987,23.002z"/>
<linearGradient id="SVGID_4_" gradientUnits="userSpaceOnUse" x1="-222.5825" y1="154.4194" x2="-220.8945" y2="154.1157" gradientTransform="matrix(4.8418 0 0 -2.8231 1090.0449 437.9248)">
	<stop  offset="0.0566" style="stop-color:#0291EB"/>
	<stop  offset="0.79" style="stop-color:#0C8ACB"/>
</linearGradient>
<path fill="url(#SVGID_4_)" d="M18.623,4.765l2.536-1.87C18.931,1.102,16.087,0,12.987,0v2.997
	C15.088,3.023,17.035,3.663,18.623,4.765L18.623,4.765z"/>
<path fill="#21A038" d="M26,13.009c0-0.794-0.077-1.563-0.205-2.331l-2.792,2.075v0.256c0,2.946-1.281,5.584-3.305,7.403
	l2.023,2.229C24.335,20.285,26,16.826,26,13.009L26,13.009z"/>
<linearGradient id="SVGID_5_" gradientUnits="userSpaceOnUse" x1="-219.3423" y1="153.1792" x2="-217.3957" y2="152.7032" gradientTransform="matrix(4.5708 0 0 -2.9905 1006.7124 480.1949)">
	<stop  offset="0.1324" style="stop-color:#F2E913"/>
	<stop  offset="0.2977" style="stop-color:#EBE716"/>
	<stop  offset="0.5306" style="stop-color:#D9E01F"/>
	<stop  offset="0.8023" style="stop-color:#BBD62D"/>
	<stop  offset="0.9829" style="stop-color:#A3CD39"/>
</linearGradient>
<path fill="url(#SVGID_5_)" d="M12.987,23.002c-2.946,0-5.584-1.28-7.403-3.304l-2.229,2.023C5.738,24.361,9.17,26,12.987,26V23.002
	z"/>
<linearGradient id="SVGID_6_" gradientUnits="userSpaceOnUse" x1="-173.3447" y1="189.4194" x2="-172.8335" y2="191.4518" gradientTransform="matrix(2.9905 0 0 -4.5708 520.7719 879.22)">
	<stop  offset="0.0698" style="stop-color:#A3CD39"/>
	<stop  offset="0.2599" style="stop-color:#81C55F"/>
	<stop  offset="0.9216" style="stop-color:#0FA8E0"/>
</linearGradient>
<path fill="url(#SVGID_6_)" d="M6.301,5.608L4.278,3.379C1.639,5.762,0,9.194,0,13.011h2.997C2.997,10.091,4.278,7.427,6.301,5.608
	L6.301,5.608z"/>
</svg>
