<?xml version="1.0" encoding="utf-8"?>
<!-- Generator: Adobe Illustrator 14.0.0, SVG Export Plug-In . SVG Version: 6.00 Build 43363)  -->
<!DOCTYPE svg PUBLIC "-//W3C//DTD SVG 1.1//EN" "http://www.w3.org/Graphics/SVG/1.1/DTD/svg11.dtd">
<svg version="1.1" id="Слой_1" xmlns="http://www.w3.org/2000/svg" xmlns:xlink="http://www.w3.org/1999/xlink" x="0px" y="0px"
	 width="86.01px" height="11.596px" viewBox="0 0 86.01 11.596" enable-background="new 0 0 86.01 11.596" xml:space="preserve">
<path d="M8.12,11.251v-8.03h4.7V0.299H0v2.922h4.7v8.03H8.12z M17.61,0.299h-3.42v10.952h3.42V0.299z M20.12,0.299v10.952h3.14V5.2
	l5.87,6.052h2.91V0.299H28.9v6.005l-5.73-6.005H20.12z M38.771,7.109l3.939,4.143h4.41l-5.5-5.707l5.29-5.246h-4.15l-3.989,4.118
	h-0.91V0.299H34.55v10.952h3.311V7.109H38.771z M53.92,0c-4.45,0-7.11,2.531-7.11,5.798s2.66,5.798,7.11,5.798
	c4.43,0,7.09-2.531,7.09-5.798S58.35,0,53.92,0z M53.92,8.927c-2.21,0-3.63-1.334-3.63-3.129c0-1.794,1.42-3.106,3.63-3.106
	c2.19,0,3.63,1.312,3.63,3.106C57.55,7.593,56.11,8.927,53.92,8.927z M73.56,0.299H62.59v10.952h3.3v-3.82h7.19V5.016h-7.19V3.083
	h7.67V0.299z M86.01,0.299H75.04v10.952h3.3v-3.82h7.19V5.016h-7.19V3.083h7.67V0.299z"/>
</svg>
