<?xml version="1.0" encoding="utf-8"?>
<!-- Generator: Adobe Illustrator 14.0.0, SVG Export Plug-In . SVG Version: 6.00 Build 43363)  -->
<!DOCTYPE svg PUBLIC "-//W3C//DTD SVG 1.1//EN" "http://www.w3.org/Graphics/SVG/1.1/DTD/svg11.dtd">
<svg version="1.1" id="Слой_1" xmlns="http://www.w3.org/2000/svg" xmlns:xlink="http://www.w3.org/1999/xlink" x="0px" y="0px"
	 width="53.721px" height="17.54px" viewBox="0 0 53.721 17.54" enable-background="new 0 0 53.721 17.54" xml:space="preserve">
<path fill="#1470B0" d="M49.631,17.311c0,0-0.391-2.386-0.521-2.984h-5.653c-0.156,0.468-0.937,2.984-0.937,2.984h-4.612
	l6.54-15.595c0.162-0.463,0.478-0.858,0.895-1.118c0.416-0.26,0.909-0.37,1.396-0.313h3.414l3.568,17.025H49.631z M47.363,6.341
	l-0.313-1.456c-0.208,0.65-0.6,1.664-0.572,1.638c0,0-1.408,3.768-1.746,4.755h3.647C48.2,10.417,47.363,6.341,47.363,6.341z
	 M37.881,4.211c-1.029-0.465-2.152-0.688-3.281-0.65c-1.746,0-2.529,0.728-2.555,1.455c0,0.806,0.939,1.325,2.5,2.105
	c2.528,1.2,3.7,2.676,3.674,4.624c-0.025,3.509-3.021,5.794-7.66,5.794c-1.676,0.006-3.338-0.303-4.899-0.908l0.6-3.819l0.6,0.286
	c1.28,0.629,2.691,0.94,4.116,0.908c1.277,0,2.631-0.52,2.658-1.662c0-0.754-0.572-1.301-2.293-2.131
	c-1.667-0.806-3.882-2.157-3.855-4.6C27.51,2.313,30.559,0,34.909,0c1.352-0.008,2.692,0.229,3.96,0.7l-0.6,3.69L37.881,4.211z
	 M18.499,17.311L21.26,0.286h4.4L22.9,17.311H18.499L18.499,17.311z M7.899,17.311L3.973,2.542C3.839,2.464,3.698,2.393,3.561,2.318
	h2.628L7.16,3.005l1.781,2.719l0.756,2.088l0.339,1.725l0.469,2.34l4.324-11.591h4.664l-6.93,17.025H7.899L7.899,17.311z"/>
<path fill="#FFB927" d="M5.9,4.526C5.373,4.111,4.805,3.75,4.206,3.449L3.955,2.505C2.709,1.791,1.381,1.231,0,0.839V0.312h6.764
	c0.405,0.001,0.797,0.14,1.111,0.395C8.19,0.961,8.408,1.316,8.493,1.712l1.464,7.454C8.875,7.403,7.503,5.834,5.9,4.526L5.9,4.526z
	"/>
</svg>
