<?xml version="1.0" encoding="utf-8"?>
<!-- Generator: Adobe Illustrator 14.0.0, SVG Export Plug-In . SVG Version: 6.00 Build 43363)  -->
<!DOCTYPE svg PUBLIC "-//W3C//DTD SVG 1.1//EN" "http://www.w3.org/Graphics/SVG/1.1/DTD/svg11.dtd">
<svg version="1.1" id="Слой_1" xmlns="http://www.w3.org/2000/svg" xmlns:xlink="http://www.w3.org/1999/xlink" x="0px" y="0px"
	 width="25.003px" height="25.044px" viewBox="0 0 25.003 25.044" enable-background="new 0 0 25.003 25.044" xml:space="preserve">
<path fill="#0083DE" d="M12.517,0c1.884-0.002,3.742,0.433,5.429,1.27c0.259,0.124,0.516,0.261,0.772,0.41l-1.14,1.032l-1.715-1.791
	l-2.893,2.607l-1.718-1.895L5.866,6.54l3.454,3.847l-1.358,1.206l3.4,3.854l-1.349,1.199l4.862,5.471l2.886-2.687l2.5,2.877
	c-0.515,0.407-1.061,0.776-1.631,1.103c-1.857,1.072-3.965,1.637-6.11,1.635c-3.32,0-6.505-1.319-8.853-3.667
	C1.319,19.028,0,15.845,0,12.524s1.319-6.505,3.667-8.853C6.015,1.323,9.2,0.004,12.52,0.004l0,0L12.517,0z M10.259,11.73
	l2.947-2.681l2.652,2.977l-2.945,2.68L10.259,11.73L10.259,11.73z M12.359,16.874l2.946-2.682l2.654,2.978l-2.947,2.682
	L12.359,16.874L12.359,16.874z M8.15,6.646l2.947-2.682l2.653,2.978l-2.947,2.68L8.15,6.646z M13.558,5.203l2.211-2.01l1.989,2.233
	l-2.21,2.011L13.558,5.203z M17.485,14.411l2.209-2.011l1.99,2.233l-2.209,2.01L17.485,14.411L17.485,14.411z M19.429,18.92
	l2.209-2.011l1.991,2.233l-2.21,2.011L19.429,18.92z M20.319,8.585l1.473-1.341l1.326,1.488l-1.473,1.34L20.319,8.585L20.319,8.585z
	 M18.437,4.161l1.473-1.34l1.328,1.489l-1.475,1.341L18.437,4.161L18.437,4.161z M22.203,13.009l1.473-1.34l1.327,1.488
	l-1.475,1.342L22.203,13.009z M15.595,9.695l2.21-2.011l1.99,2.233l-2.21,2.012L15.595,9.695L15.595,9.695z"/>
</svg>
